<?xml version="1.0" encoding="utf-8"?>
<!-- Generator: Adobe Illustrator 25.0.0, SVG Export Plug-In . SVG Version: 6.00 Build 0)  -->
<svg version="1.1" id="Capa_1" xmlns="http://www.w3.org/2000/svg" xmlns:xlink="http://www.w3.org/1999/xlink" x="0px" y="0px"
	 viewBox="0 0 80.23 84.99" style="enable-background:new 0 0 80.23 84.99;" xml:space="preserve">
<style type="text/css">
	.st0{fill:#054B82;}
</style>
<g>
	<path class="st0" d="M67.85,57.17c-4.7-1.44-10.95-2.47-17.86-2.98l9.03-13.06c2.87-4.13,4.17-9.16,3.65-14.17
		c-0.56-5.03-2.88-9.69-6.56-13.16c-8.82-8.4-23.18-8.4-32,0c-3.67,3.47-6,8.14-6.56,13.16c-0.52,5.01,0.77,10.04,3.65,14.17
		l9.03,13.06c-6.89,0.51-13.14,1.54-17.84,2.97c-6.4,1.95-9.64,4.52-9.64,7.64c0,3.46,3.97,6.24,11.8,8.24
		c6.85,1.76,15.93,2.72,25.56,2.72c9.63,0,18.71-0.97,25.56-2.72c7.83-2.01,11.8-4.78,11.8-8.24
		C77.47,61.69,74.23,59.12,67.85,57.17L67.85,57.17z M21.27,27.36c0.46-4.14,2.38-7.99,5.42-10.85c7.56-7.05,19.29-7.05,26.85,0
		c3.03,2.86,4.95,6.71,5.42,10.85c0.43,4.12-0.64,8.25-3.01,11.65L40.12,61.9L24.28,39.01C21.91,35.61,20.85,31.47,21.27,27.36
		L21.27,27.36z M64.74,69.43c-6.56,1.68-15.3,2.61-24.63,2.61s-18.07-0.93-24.63-2.61C8.11,67.54,6.5,65.45,6.5,64.8
		c0-0.02,0.08-1.96,7-4.07c4.93-1.5,11.73-2.55,19.23-2.96l5.86,8.47c0.35,0.5,0.92,0.8,1.54,0.8c0.61,0,1.19-0.3,1.54-0.8
		l5.86-8.47c7.51,0.42,14.31,1.46,19.25,2.97c6.9,2.1,6.98,4.04,6.98,4.06C73.73,65.45,72.12,67.54,64.74,69.43L64.74,69.43z
		 M64.74,69.43"/>
</g>
<g>
	<path class="st0" d="M50.12,28.05c0-5.53-4.48-10-10-10c-5.53,0-10,4.48-10,10c0,5.53,4.48,10,10,10
		C45.64,38.06,50.12,33.58,50.12,28.05L50.12,28.05z M33.85,28.05c0-3.46,2.81-6.27,6.27-6.27c3.46,0,6.27,2.81,6.27,6.27
		c0,3.46-2.81,6.27-6.27,6.27C36.65,34.32,33.85,31.51,33.85,28.05L33.85,28.05z M33.85,28.05"/>
</g>
</svg>
