<?xml version="1.0" encoding="utf-8"?>
<!-- Generator: Adobe Illustrator 25.0.0, SVG Export Plug-In . SVG Version: 6.00 Build 0)  -->
<svg version="1.1" id="Capa_1" xmlns="http://www.w3.org/2000/svg" xmlns:xlink="http://www.w3.org/1999/xlink" x="0px" y="0px"
	 viewBox="0 0 80.23 84.99" style="enable-background:new 0 0 80.23 84.99;" xml:space="preserve">
<style type="text/css">
	.st0{fill:#054B82;}
</style>
<g>
	<g>
		<path class="st0" d="M67.39,17.47H11.53c-4.82,0-8.72,3.91-8.73,8.73v32.59c0,4.82,3.91,8.73,8.73,8.73h55.85
			c4.82,0,8.72-3.91,8.73-8.73V26.2C76.11,21.38,72.21,17.47,67.39,17.47L67.39,17.47z M11.53,20.96h55.85
			c2.51,0.01,4.67,1.79,5.15,4.26L39.46,43.65L6.39,25.22C6.86,22.75,9.02,20.97,11.53,20.96L11.53,20.96z M67.39,64.01H11.53
			C8.65,64,6.31,61.66,6.3,58.77v-29.6l32.31,18.01c0.26,0.14,0.56,0.22,0.86,0.23c0.3,0,0.6-0.08,0.86-0.23l32.31-18.01v29.6
			C72.62,61.66,70.28,64,67.39,64.01L67.39,64.01z M67.39,64.01"/>
	</g>
</g>
</svg>
