<?xml version="1.0" encoding="utf-8"?>
<!-- Generator: Adobe Illustrator 25.0.0, SVG Export Plug-In . SVG Version: 6.00 Build 0)  -->
<svg version="1.1" id="Capa_1" xmlns="http://www.w3.org/2000/svg" xmlns:xlink="http://www.w3.org/1999/xlink" x="0px" y="0px"
	 viewBox="0 0 80.23 84.99" style="enable-background:new 0 0 80.23 84.99;" xml:space="preserve">
<style type="text/css">
	.st0{fill:#054B82;}
</style>
<g>
	<g>
		<path class="st0" d="M33.71,58.57h-8.05c-1.28-0.01-2.38-0.89-2.66-2.14c0-0.01,0-0.04,0-0.05c-1.88-9.16-1.88-18.6,0-27.76
			c0-0.01,0-0.07,0-0.08c0.28-1.25,1.39-2.13,2.66-2.14h8.05c3.85,0,6.86-2.98,6.86-6.76V6.87c0.02-3.77-3.03-6.85-6.8-6.87h-3.36
			C16.64,0,4.86,9.62,2.39,22.88L1.25,29c-1.67,8.92-1.67,18.07,0,26.99l1.14,6.12c2.47,13.26,14.25,22.88,28.03,22.88h3.3
			c3.77,0.02,6.85-3.03,6.86-6.8V65.33C40.58,61.55,37.56,58.57,33.71,58.57L33.71,58.57z M35.98,78.12
			c0.02,1.23-0.96,2.25-2.2,2.27h-3.37c-11.56,0-21.45-8.04-23.51-19.13l-1.14-6.12c-1.56-8.36-1.56-16.94,0-25.31l1.14-6.12
			C8.97,12.64,18.86,4.59,30.42,4.59h3.3c1.23-0.02,2.25,0.96,2.27,2.2v12.86c0,1.25-0.96,2.17-2.27,2.17h-8.05
			c-3.46,0.01-6.45,2.44-7.17,5.82c0,0.01,0,0.04,0,0.05c-2,9.75-2,19.8,0,29.55c0,0.01,0,0.08,0,0.08c0.72,3.39,3.7,5.82,7.17,5.83
			h8.05c1.31,0,2.27,0.91,2.27,2.17V78.12z M35.98,78.12"/>
	</g>
	<g>
		<path class="st0" d="M62.68,8.79c-0.89,0.91-0.87,2.36,0.04,3.25c8.33,8.14,12.92,18.95,12.92,30.45
			c0,11.5-4.59,22.31-12.92,30.45c-0.91,0.88-0.93,2.34-0.05,3.25c0.88,0.91,2.34,0.94,3.25,0.05l0.02-0.01
			c9.22-9.01,14.3-20.99,14.3-33.74s-5.08-24.73-14.3-33.74C65.02,7.87,63.57,7.89,62.68,8.79L62.68,8.79z M62.68,8.79"/>
	</g>
	<g>
		<path class="st0" d="M55.24,19.2c-0.58-0.58-1.43-0.81-2.23-0.59c-0.8,0.22-1.41,0.84-1.62,1.64c-0.21,0.8,0.03,1.65,0.62,2.22
			l0.02,0.01c11.05,10.67,11.35,28.29,0.68,39.34c-0.22,0.23-0.45,0.46-0.68,0.68c-0.91,0.88-0.93,2.34-0.05,3.25
			c0.88,0.91,2.34,0.94,3.25,0.05l0.01-0.02c12.86-12.45,13.2-32.97,0.76-45.83C55.74,19.7,55.49,19.45,55.24,19.2L55.24,19.2z
			 M55.24,19.2"/>
	</g>
	<g>
		<path class="st0" d="M40.28,30.67c-0.89,0.91-0.87,2.36,0.04,3.25c4.74,4.57,4.87,12.12,0.3,16.85c-0.1,0.1-0.2,0.2-0.3,0.3
			c-0.91,0.88-0.94,2.34-0.05,3.25c0.88,0.91,2.34,0.94,3.25,0.05l0.02-0.02c6.55-6.34,6.72-16.8,0.38-23.35
			c-0.12-0.13-0.25-0.25-0.38-0.38C42.62,29.74,41.17,29.76,40.28,30.67L40.28,30.67z M40.28,30.67"/>
	</g>
</g>
</svg>
